<svg xmlns="http://www.w3.org/2000/svg" viewBox="-6.43 27.83 351.04 439.40" fill="none"><path d="M64.3812 158.04C59.8588 155.653 56.2156 151.634 54.08 146.485C49.5575 134.929 55.3362 121.867 66.8937 117.345L266.763 39.2214H266.889C275.683 35.8301 283.848 37.9654 289.879 42.8639V42.9896C292.517 45.1246 294.526 47.7623 295.909 50.6512L296.035 50.7767C297.416 53.6655 298.295 57.0568 298.295 60.5735C298.421 68.2351 295.029 76.0224 286.862 80.7954L286.739 80.9209L184.228 140.581L264.25 118.099C272.667 115.712 280.079 118.099 285.607 122.872C288.246 125.133 290.506 128.147 291.889 131.538C293.145 134.678 293.772 138.195 293.646 141.586V141.712C293.145 148.997 289.627 156.03 281.963 160.301L157.721 230.762L309.978 209.536C318.647 208.28 325.68 211.672 330.582 217.197C332.968 219.961 334.601 223.1 335.48 226.368L335.606 226.617C336.486 229.883 336.612 233.4 335.982 236.791L335.856 237.169C334.349 244.201 329.952 250.608 321.787 253.873H321.661L213.498 296.955L263.245 292.432C270.407 291.805 276.563 294.317 281.084 298.587C283.974 301.351 286.109 304.742 287.24 308.383L287.366 308.635C288.497 312.404 288.747 316.423 287.868 320.316C286.613 326.345 283.095 331.872 276.813 335.513V335.387L72.0443 453.076C61.2405 459.231 47.5474 455.588 41.3918 444.787C35.2362 433.986 38.8793 420.295 49.6831 414.14L167.645 346.315L67.1449 355.609C58.7281 356.488 51.9443 352.973 47.4219 347.698L47.2961 347.572C45.0349 344.808 43.2762 341.542 42.5225 338.025C41.7687 334.634 41.643 330.867 42.5225 327.35V327.224C44.1555 320.316 48.6781 314.286 56.3412 311.273H56.4669L136.992 279.245L50.3113 291.303C42.7737 292.306 36.4924 289.794 31.7187 285.4L31.593 285.274C28.8293 282.762 26.6936 279.497 25.4374 275.98C24.1812 272.336 23.8042 268.318 24.4324 264.423V264.299C25.5631 257.892 29.2063 251.989 35.7386 248.222H35.8644L103.451 209.913L31.0905 230.261H30.965C22.7992 232.521 15.3873 230.261 9.85984 225.612C7.09608 223.352 4.96046 220.339 3.57859 216.947C2.19672 213.807 1.56858 210.164 1.81984 206.522V206.396C2.32234 199.237 5.83983 192.203 13.3773 187.807L64.5067 158.04H64.3812Z" fill="#FFFFFF"></path></svg>